<svg width="301" height="224" viewBox="0 0 301 224" fill="none" xmlns="http://www.w3.org/2000/svg">
<path d="M300.328 195.919C299.786 197.772 299.314 199.649 298.703 201.479C294.082 215.129 282.27 223.175 266.667 223.186C224.652 223.221 182.625 223.198 140.61 223.198C105.036 223.198 69.4626 223.163 33.9005 223.221C24.1746 223.232 15.624 220.447 8.82505 213.276C-5.56801 198.118 -1.90348 174.465 16.5229 163.761C35.5023 152.735 54.5279 141.777 73.5189 130.785C95.3908 118.125 117.24 105.441 139.146 92.8492C140.898 91.8363 141.543 90.7313 141.462 88.7286C140.875 73.7198 147.455 62.7855 160.361 55.2811C168.67 50.447 172.208 41.1011 169.557 32.0889C166.941 23.2379 158.817 17.552 149.091 17.8053C140.356 18.0239 132.681 24.4349 130.561 33.3895C130.204 34.8858 130.227 36.4857 130.054 38.028C129.409 43.6563 125.514 47.0286 120.213 46.5912C115.373 46.1884 111.985 41.8377 112.285 36.4166C113.425 16.3435 128.314 1.47286 148.63 0.0801785C166.895 -1.17439 183.835 12.4302 187.534 31.3178C190.496 46.4301 183.282 62.3482 169.396 70.428C162.159 74.6406 158.621 80.5221 158.932 88.8897C159.001 90.7773 159.52 91.8248 161.156 92.7801C181.196 104.301 201.201 115.88 221.206 127.459C241.718 139.326 262.184 151.273 282.754 163.047C291.835 168.238 297.839 175.524 299.832 185.906C299.878 186.148 300.155 186.355 300.328 186.573C300.328 189.67 300.328 192.789 300.328 195.919ZM150.232 205.403C176.806 205.403 203.379 205.403 229.964 205.403C242.767 205.403 255.558 205.438 268.361 205.38C275.921 205.346 281.36 200.65 282.593 193.284C283.538 187.69 280.519 182.2 274.446 178.689C233.767 155.129 193.065 131.591 152.41 107.973C150.693 106.972 149.552 107.121 147.95 108.054C119.279 124.697 90.5739 141.294 61.88 157.902C49.7225 164.935 37.5651 171.944 25.4191 179.011C19.5997 182.395 16.7649 188.15 17.9633 193.905C19.4729 201.191 24.7853 205.392 32.6906 205.392C71.871 205.403 111.052 205.392 150.232 205.403Z" fill="black"/>
</svg>
